HIERARCHY
ROOT Hips
{
	OFFSET -14.64140 90.27770 -84.91600
	CHANNELS 6 Xposition Yposition Zposition Zrotation Xrotation Yrotation
	JOINT Spine
	{
		OFFSET 0.00000 13.20850 -1.60436
		CHANNELS 3 Zrotation Xrotation Yrotation
		JOINT Spine1
		{
			OFFSET 0.00000 8.61716 0.00000
			CHANNELS 3 Zrotation Xrotation Yrotation
			JOINT Spine2
			{
				OFFSET 0.00000 8.61717 0.00000
				CHANNELS 3 Zrotation Xrotation Yrotation
				JOINT Spine3
				{
					OFFSET 0.00000 8.61717 0.00000
					CHANNELS 3 Zrotation Xrotation Yrotation
					JOINT Neck
					{
						OFFSET 0.00000 11.07920 1.10792
						CHANNELS 3 Zrotation Xrotation Yrotation
						JOINT Neck1
						{
							OFFSET 0.00000 7.08032 0.00000
							CHANNELS 3 Zrotation Xrotation Yrotation
							JOINT Head
							{
								OFFSET 0.00000 7.08031 0.00000
								CHANNELS 3 Zrotation Xrotation Yrotation
								End site
								{
									OFFSET 0.00000 0.00000 0.00000
								}
							}
						}
					}
					JOINT RightShoulder
					{
						OFFSET -0.01000 7.91373 5.19711
						CHANNELS 3 Zrotation Xrotation Yrotation
						JOINT RightArm
						{
							OFFSET -18.41580 0.00000 0.00000
							CHANNELS 3 Zrotation Xrotation Yrotation
							JOINT RightForeArm
							{
								OFFSET -29.11090 0.00000 0.00000
								CHANNELS 3 Zrotation Xrotation Yrotation
								JOINT RightHand
								{
									OFFSET -24.65040 0.00000 0.00000
									CHANNELS 3 Zrotation Xrotation Yrotation
									JOINT RightHandThumb1
									{
										OFFSET -5.35114 -0.85590 3.97906
										CHANNELS 3 Zrotation Xrotation Yrotation
										JOINT RightHandThumb2
										{
											OFFSET -4.52789 0.00000 0.00000
											CHANNELS 3 Zrotation Xrotation Yrotation
											JOINT RightHandThumb3
											{
												OFFSET -2.46976 0.00000 0.00000
												CHANNELS 3 Zrotation Xrotation Yrotation
												End site
												{
													OFFSET 0.00000 0.00000 0.00000
												}
											}
										}
									}
									JOINT RightHandIndex1
									{
										OFFSET -14.26970 0.00000 2.88139
										CHANNELS 3 Zrotation Xrotation Yrotation
										JOINT RightHandIndex2
										{
											OFFSET -5.48836 0.00000 0.00000
											CHANNELS 3 Zrotation Xrotation Yrotation
											JOINT RightHandIndex3
											{
												OFFSET -3.01859 0.00000 0.00000
												CHANNELS 3 Zrotation Xrotation Yrotation
												End site
												{
													OFFSET 0.00000 0.00000 0.00000
												}
											}
										}
									}
									JOINT RightHandMiddle1
									{
										OFFSET -14.26970 0.00000 -0.09147
										CHANNELS 3 Zrotation Xrotation Yrotation
										JOINT RightHandMiddle2
										{
											OFFSET -6.17441 0.00000 0.00000
											CHANNELS 3 Zrotation Xrotation Yrotation
											JOINT RightHandMiddle3
											{
												OFFSET -3.56743 0.00000 0.00000
												CHANNELS 3 Zrotation Xrotation Yrotation
												End site
												{
													OFFSET 0.00000 0.00000 0.00000
												}
											}
										}
									}
									JOINT RightHandRing1
									{
										OFFSET -12.69180 0.00000 -3.06433
										CHANNELS 3 Zrotation Xrotation Yrotation
										JOINT RightHandRing2
										{
											OFFSET -5.62556 0.00000 0.00000
											CHANNELS 3 Zrotation Xrotation Yrotation
											JOINT RightHandRing3
											{
												OFFSET -3.56744 0.00000 0.00000
												CHANNELS 3 Zrotation Xrotation Yrotation
												End site
												{
													OFFSET 0.00000 0.00000 0.00000
												}
											}
										}
									}
									JOINT RightHandPinky1
									{
										OFFSET -11.11390 0.00000 -6.03719
										CHANNELS 3 Zrotation Xrotation Yrotation
										JOINT RightHandPinky2
										{
											OFFSET -4.52789 0.00000 0.00000
											CHANNELS 3 Zrotation Xrotation Yrotation
											JOINT RightHandPinky3
											{
												OFFSET -2.46976 0.00000 0.00000
												CHANNELS 3 Zrotation Xrotation Yrotation
												End site
												{
													OFFSET 0.00000 0.00000 0.00000
												}
											}
										}
									}
								}
							}
						}
					}
					JOINT LeftShoulder
					{
						OFFSET 0.01000 7.91373 5.19711
						CHANNELS 3 Zrotation Xrotation Yrotation
						JOINT LeftArm
						{
							OFFSET 18.41580 0.00000 0.00000
							CHANNELS 3 Zrotation Xrotation Yrotation
							JOINT LeftForeArm
							{
								OFFSET 29.11090 0.00000 0.00000
								CHANNELS 3 Zrotation Xrotation Yrotation
								JOINT LeftHand
								{
									OFFSET 24.65040 0.00000 0.00000
									CHANNELS 3 Zrotation Xrotation Yrotation
									JOINT LeftHandThumb1
									{
										OFFSET 5.35114 -0.85590 3.97906
										CHANNELS 3 Zrotation Xrotation Yrotation
										JOINT LeftHandThumb2
										{
											OFFSET 4.52789 0.00000 0.00000
											CHANNELS 3 Zrotation Xrotation Yrotation
											JOINT LeftHandThumb3
											{
												OFFSET 2.46977 0.00000 0.00000
												CHANNELS 3 Zrotation Xrotation Yrotation
												End site
												{
													OFFSET 0.00000 0.00000 0.00000
												}
											}
										}
									}
									JOINT LeftHandIndex1
									{
										OFFSET 14.26970 0.00000 2.88139
										CHANNELS 3 Zrotation Xrotation Yrotation
										JOINT LeftHandIndex2
										{
											OFFSET 5.48836 0.00000 0.00000
											CHANNELS 3 Zrotation Xrotation Yrotation
											JOINT LeftHandIndex3
											{
												OFFSET 3.01859 0.00000 0.00000
												CHANNELS 3 Zrotation Xrotation Yrotation
												End site
												{
													OFFSET 0.00000 0.00000 0.00000
												}
											}
										}
									}
									JOINT LeftHandMiddle1
									{
										OFFSET 14.26970 0.00000 -0.09147
										CHANNELS 3 Zrotation Xrotation Yrotation
										JOINT LeftHandMiddle2
										{
											OFFSET 6.17440 0.00000 0.00000
											CHANNELS 3 Zrotation Xrotation Yrotation
											JOINT LeftHandMiddle3
											{
												OFFSET 3.56744 0.00000 0.00000
												CHANNELS 3 Zrotation Xrotation Yrotation
												End site
												{
													OFFSET 0.00000 0.00000 0.00000
												}
											}
										}
									}
									JOINT LeftHandRing1
									{
										OFFSET 12.69180 0.00000 -3.06433
										CHANNELS 3 Zrotation Xrotation Yrotation
										JOINT LeftHandRing2
										{
											OFFSET 5.62556 0.00000 0.00000
											CHANNELS 3 Zrotation Xrotation Yrotation
											JOINT LeftHandRing3
											{
												OFFSET 3.56744 0.00000 0.00000
												CHANNELS 3 Zrotation Xrotation Yrotation
												End site
												{
													OFFSET 0.00000 0.00000 0.00000
												}
											}
										}
									}
									JOINT LeftHandPinky1
									{
										OFFSET 11.11390 0.00000 -6.03719
										CHANNELS 3 Zrotation Xrotation Yrotation
										JOINT LeftHandPinky2
										{
											OFFSET 4.52789 0.00000 0.00000
											CHANNELS 3 Zrotation Xrotation Yrotation
											JOINT LeftHandPinky3
											{
												OFFSET 2.46976 0.00000 0.00000
												CHANNELS 3 Zrotation Xrotation Yrotation
												End site
												{
													OFFSET 0.00000 0.00000 0.00000
												}
											}
										}
									}
								}
							}
						}
					}
					JOINT pCube4
					{
						OFFSET 0.00000 10.91090 1.10792
						CHANNELS 3 Zrotation Xrotation Yrotation
						End site
						{
							OFFSET 0.00000 0.00000 0.00000
						}
					}
				}
			}
		}
	}
	JOINT RightUpLeg
	{
		OFFSET -9.98441 0.00000 0.00000
		CHANNELS 3 Zrotation Xrotation Yrotation
		JOINT RightLeg
		{
			OFFSET 0.00000 -42.11790 0.00000
			CHANNELS 3 Zrotation Xrotation Yrotation
			JOINT RightFoot
			{
				OFFSET 0.00000 -45.00020 -0.00001
				CHANNELS 3 Zrotation Xrotation Yrotation
				JOINT RightForeFoot
				{
					OFFSET 0.00000 -3.74820 0.00000
					CHANNELS 3 Zrotation Xrotation Yrotation
					JOINT RightToeBase
					{
						OFFSET 0.00000 0.06325 14.43120
						CHANNELS 3 Zrotation Xrotation Yrotation
						End site
						{
							OFFSET 0.00000 0.00000 0.00000
						}
					}
				}
			}
		}
	}
	JOINT LeftUpLeg
	{
		OFFSET 9.98441 0.00000 0.00000
		CHANNELS 3 Zrotation Xrotation Yrotation
		JOINT LeftLeg
		{
			OFFSET 0.00000 -42.11800 0.00000
			CHANNELS 3 Zrotation Xrotation Yrotation
			JOINT LeftFoot
			{
				OFFSET 0.00000 -45.00070 0.00000
				CHANNELS 3 Zrotation Xrotation Yrotation
				JOINT LeftForeFoot
				{
					OFFSET 0.00000 -3.74824 0.00000
					CHANNELS 3 Zrotation Xrotation Yrotation
					JOINT LeftToeBase
					{
						OFFSET 0.00000 0.06325 14.43110
						CHANNELS 3 Zrotation Xrotation Yrotation
						End site
						{
							OFFSET 0.00000 0.00000 0.00000
						}
					}
				}
			}
		}
	}
}
MOTION
Frames: 4
Frame Time: 0.050000
-0.001061343732003633 0.02828079130637271 0.001709180244324599 -0.04481215415302331 0.01585488762385091 0.04455990804212605 -2.0829167993546283 2.8289025648276334 -0.8771545961190811 -1.0268326124007332 3.851365339427998 0.3434071513005711 -0.9693172338066007 -1.4658278463004077 -1.3302814964082996 -0.3982727866258273 0.4357069049584584 -0.7665601396194685 -1.0778724950301026 11.685144531300622 2.511326955918928 -0.06319654772282496 -2.0523692286068798 4.813914570620159 -0.530091831379074 -18.662622818108535 0.3649020678870337 -3.38149512719131 1.4719045004750575 -14.398426054812298 73.37197378661354 21.702366771980167 0.3494110652921862 5.195646274699977 5.876657144981839 53.19745620559979 20.40004912213971 -0.09426958534466429 -4.36813957673899 4.498724157033093 -0.13536183402816743 -1.5787487460267224 -0.024896755353608337 -0.015750784056663882 -56.25413999354329 0.013323749811943853 -0.03880472852435309 -56.21024755219735 -38.773230660785124 -0.043621369540301706 -0.029548953503304814 -0.031098949271825386 -0.03318732252386663 -0.035010766539802174 -0.0024575845582725585 0.03183298941973765 -0.04391744041454426 -36.66518678638694 -0.0062398120911392576 0.01059821771154635 -0.045998227465803364 0.04787371656413032 -0.020738115816753104 0.009784269484233268 -0.005895340358294394 -0.00028125792970560616 -19.725084186858616 0.014683296246372225 0.013988268177531647 -0.01596249715349632 0.017395482081739196 -0.00971124154532702 0.02338972887060251 0.013190929555298108 -0.01455725897018592 24.022271703213306 -0.000490054130412808 -0.03449438654258422 28.857086821340094 -0.006818294510028152 0.014420584120019427 28.83312433272218 -0.03930761686338076 0.01279490420980808 6.608035703087292 1.5177178070292288 12.66428106618181 -73.10077741726163 26.101276317265498 -10.882107588488509 -40.51495378275839 2.5492999933795506 -78.64564332998069 -11.94222501844424 -1.804840868712325 1.7498616965076037 -0.42786848487292817 0.06024778716748577 -8.12360776826829 0.023817304658767576 0.006243707856514222 44.533356773211125 -0.013517367741672033 0.00045594223908758575 44.553327591663475 12.488841510342512 0.0266807472994626 -0.039241999595135434 -0.03484654756762287 -0.049265323322100846 -0.012500251196461159 -0.0218472396937632 -0.003263767855984951 0.011950771732746206 11.092303949111795 -0.004322336915183495 0.003973862912280223 -0.02971852450920864 -0.0072499543218952425 0.00041497467494920696 -0.010300947157375088 -0.0015311273951745675 -0.03520722976471043 4.731530456060309 -0.024773280509354303 0.02262400597285599 -0.019712460154128673 0.045447479099817945 0.022063803277188834 -0.011592345169187565 -0.013492764194661944 0.038805711281278486 -5.562372837995491 0.04072444917217325 0.04939921729658392 -6.770767384533697 0.027356440040855745 -0.0008022576487178213 -6.719745474188058 0.00922848617658572 0.008490479961811608 -0.0033793257485962595 -0.04106578441715935 -0.011857450969373589 8.010594754836891 3.4958483608280426 -19.23823700898267 0.009994859684968169 10.364377573271176 -0.019410085116634685 -5.6618523435214305 -15.628266155331296 3.213834449442442 0.045547341564603196 0.008372050604169724 -0.040058510452321165 0.029276105797224075 4.655001778490688 0.012230246378545745 12.506714542336278 -8.195624286228938 6.886788314729356 -0.007289828458691482 46.40810943143949 0.04344564659801189 -4.356773821259994 -14.789183734006011 -3.8841614188160776 0.0335095509685178 -0.0016131283707466904 -0.04945793237387752 0.013651773038146025 -10.74473255197128 0.016524171505538907 
-0.01663191945687937 0.021754685476799214 0.0004758892911098937 -0.00332818822675004 -0.0360201080664525 -0.02348094249634693 -2.191053065222642 2.608480532510624 -0.909112555497258 -0.9271292538633897 3.8694025407109587 0.3583411693563596 -1.0273510469371692 -1.4893214346905004 -1.439706999767192 -0.42918785115969516 0.48335967197875085 -0.7958642906853873 -1.1665396661689629 11.683482252289044 2.752897707800765 -0.042524012003342125 -1.9059614040476809 5.377628277512933 -0.5330285295983546 -18.488515004166313 0.3838939960300476 -3.195946472816388 1.375572017675875 -14.395822635257822 73.44980849054159 22.30852325185274 -0.2954518653002199 6.452572861994487 6.636804398742736 52.49128612254144 21.243136631825166 -0.044151368469392896 -4.584278111338299 4.565103063153631 -0.15901360694210645 -1.6140581737151647 0.017526182799236182 0.015652700215239644 -56.231823435401054 0.014019087529200655 0.017324312670083043 -56.2670098039068 -38.79931023626848 0.0077364973636631605 -0.03182364068244489 -0.0006683686316878725 0.004722304856685598 -0.014698946154027703 0.04405043103347305 0.00202629519604281 0.03572880483252644 -36.718801960236554 -0.01850008366208002 0.011224748966527842 -0.04930137511493895 -0.03818421285942193 0.03810989454255064 -0.040134736173899364 0.005405699503600265 -0.004170369730266858 -19.799734842612168 -0.0337903887828307 0.005476716585625272 0.004660535546032255 0.0018841958113457937 -0.005590219672204049 -0.029114406925897993 0.019755834858036038 0.009935162631005382 24.06836913677095 -0.015605824513389622 -0.04267883968753613 28.847923465957987 0.009163638312318041 -0.04881907007876003 28.900816004285815 0.046555177008895554 0.0021967263726373615 6.644538421755147 1.5687648725008712 12.652774698937058 -73.22614194012085 25.69919615694109 -11.012537140679346 -45.032102405821384 2.8833423111021954 -82.29924417268622 -12.310772944554682 -2.057786680106166 1.713329203018231 -0.46306933607469214 0.041899374536713094 -8.10944708368296 -0.043224370601222216 -0.010439657057670238 44.53964958400759 0.0069257156894618685 -0.03757368847321021 44.58448949883879 12.445572308798356 0.024748729413514345 0.019247730691991715 -0.04398879843715792 0.02885944257630113 0.03360644099864187 0.043218747905584866 -0.011421201039036108 -0.006238291406232289 11.078788030907498 -8.523134339335125e-05 -0.04874331067811978 0.002542831775758472 0.0039898044164164695 0.032202736533048816 -0.016732647955339398 -0.03568801789742925 0.019503823965228928 4.769572938438067 -0.03152149567447304 -0.04323626542823736 -0.015770996324227307 -0.03112781322464993 -0.04726409275450354 -0.032140931820558084 -0.04046528250307658 0.020060983923256462 -5.599527047927932 0.014998889359894444 -0.03151818432958262 -6.678872022671794 0.03125957543928723 -0.009922405681416122 -6.715641118540678 -0.030513645978052974 -0.018280916230197994 -0.014964694788920858 -0.000987099716878627 -0.022255495999876727 8.036792092211012 3.510230828871488 -19.240358440291196 -0.024580060427871635 10.349211100201556 0.007488643850256236 -5.653590794839894 -15.620371817592455 3.161873434253075 0.010367496503400814 -0.030480200169937233 0.023624616906117717 -0.009165619744559808 4.746331363127835 -0.04042864315110505 12.454150346660459 -8.202993319556022 6.9215097386471935 -0.021710617634928688 46.39775541752597 -0.009794853912276028 -4.30616281713046 -14.763697542114128 -3.868486248777835 -0.026969341867304254 0.03651250597508944 -0.015676338279622126 0.008143063785999223 -10.730382004742912 0.022510038536595302 
-0.015539896875627082 0.0492026716696243 -0.025646638669176658 -0.016579941761052795 0.04237803551560654 0.021434119270619098 -2.327831790094909 2.5191188796632353 -0.8089698544517276 -0.9513001083637528 3.8010511583718056 0.35459831290539157 -0.9752391854892567 -1.5131174015950488 -1.55752594133947 -0.4647323419730293 0.42890210985643784 -0.8652692431923212 -1.2620937245780208 11.644154746282561 2.985154488608887 -0.02917442564097033 -1.7996493320292397 5.8089021244070365 -0.642033717451799 -18.09250605459563 0.4980318094864903 -2.937618872442382 1.3293741268275927 -14.321114714739851 73.29270215162327 22.200055629602137 -0.6998389961143276 7.374690877869202 7.070415416218181 51.841169419930566 22.1497461419041 -0.06345531650020216 -4.561140900772872 4.5291563750113975 -0.1369199738247552 -1.5981463022408497 0.019518847912483647 0.03930846863775029 -56.24638160840386 0.016747393346971107 -0.019219629023366713 -56.26674069986553 -38.77757184739091 0.005246855679347531 -0.030013742581744506 0.0385913103784118 -0.019824157055575102 0.004232136962661043 0.03518245667604295 0.044624566240922856 -0.004640737655083645 -36.68081074841428 -0.0153860747520983 -0.027301325479830617 -0.008166167824532647 -0.012583504061742128 0.028326954152608164 -0.0049645018145490685 -0.017565408564332433 0.02739600186459316 -19.773349234378188 -0.022697126614517612 0.0063274371656656956 -0.044916429913368736 0.02968488407408023 -0.005673566209243244 0.04234154745810555 0.011440485661320296 0.0022712769366817335 24.04809949154155 0.019128244885072667 -0.012866311218707037 28.856699332885437 0.02322575744286352 -0.019770559601353405 28.87969549082307 0.039860138215991596 0.0038150197906074183 6.589522394302662 1.5590499764617545 12.643149812858299 -72.95260707775779 25.286531032640497 -11.011472731118358 -48.596331771896914 2.7903033067138066 -85.17550652780834 -12.534931946311119 -2.099776329306985 1.5457107205022333 -0.45889848493017454 0.08559499262883281 -8.161169773445248 0.008812542910852612 -0.025397617654055377 44.605753609995055 -0.006546689251670782 -0.029291720650736583 44.55783138880461 12.433138178731395 -0.027265389679110602 0.015023576134830552 0.005721584773242514 -0.026293911537251184 0.01812908781617949 -0.038608030633784846 0.024948439589165643 0.0023097830635456585 11.090502200917614 -0.0030509274404447676 -0.007935719990248601 0.04437145208460866 -0.04251558045765773 -0.007806371141738557 0.02477675836181703 -0.03446448111031165 0.02782972049699328 4.76311692335783 0.012848477339838347 0.0286628145448361 -0.0075107154883608945 0.008509298539041147 -0.021054119149737337 -0.008088433826083997 -0.020239962171519427 0.0021434004604570928 -5.580227325997347 0.020024600840832935 -0.005573450439317492 -6.724803175730789 -0.04460607066508709 0.004300969749002109 -6.760075153826935 -0.0041687685798890385 -0.02281739224621616 -0.02506449996469855 -0.013283890368462331 -0.04118743552582052 8.060064521031055 3.5321113621917606 -19.179713680905806 0.023290743132526746 10.40342207421633 0.03538973580090192 -5.655758270308798 -15.677184281904388 3.156805680321011 -0.003388410038418841 -0.031815552543188824 -0.02185556042054681 0.012123443866529585 4.680037346225946 -0.04349133459999626 12.437822933237218 -8.230807411199937 6.9155126292551685 0.02150703713661056 46.42577792108083 -0.03640223906933509 -4.371610604032059 -14.791014312437785 -3.812343500316078 -0.03518899858883187 -0.04070623403510458 0.020405422580598017 0.03838498672481057 -10.744071436788966 -0.0410588802660914 
0.0077795326882265595 0.009143407060869076 -0.0429236488243116 -0.020341257947193075 0.002654009998599473 -0.015265905869369559 -2.5651842059193872 2.4361102318059387 -0.8150167131860597 -0.9998251645700558 3.775047784067069 0.34038033368511034 -0.9841054108318227 -1.5872418120736682 -1.6118216598989004 -0.509549819144509 0.39851068897004566 -0.8901730847164482 -1.2710304870328044 11.631210543259906 3.0665404716393447 0.0013813837170087821 -1.5927594603118198 6.1372380623083105 -0.6298373939856889 -17.810556377828256 0.4956590802129319 -2.7078381308327484 1.3154392099510974 -14.267074478226803 73.0745948439289 22.016457458227208 -0.9987057909623305 7.738469417906655 7.199300808557626 51.33347968453819 22.84766225076902 -0.05867610038869509 -4.623833476489699 4.538907580720571 -0.09713532559933015 -1.6083745292036253 0.010096527556301048 0.019124366224583973 -56.23029440592218 -0.04137312704302915 0.032686048773209936 -56.227574794936785 -38.769641743257644 -0.02768189030689372 -0.038915225411339564 0.04644702562376494 0.03330819762764224 0.03984110168185335 -0.02934105898796443 -0.002439517168192284 -0.03606885462417178 -36.739692518187994 -0.037824454828577464 0.02245782804132649 0.0005056204627941257 0.02783400015007909 -0.0415053840821581 0.04152265478764155 0.04994133937290932 -0.010310314272421487 -19.772110957635093 0.019862116015191635 0.022498235450512463 -0.02610092781880393 -0.01429289771983344 0.010575108305136778 0.0271120901767344 -0.020413463474599425 -0.03706561627881475 24.038418395572172 0.005515324279845008 -0.015956976917571256 28.83846952414408 -0.015523338851383081 0.009746762239089086 28.85957534859155 0.02943428862509251 0.03810083511939925 6.5342738364895405 1.4807982134232271 12.562567525382072 -72.64872215588866 25.131167158782574 -11.03461130617552 -50.31613606570511 2.481972550484171 -86.55542717226396 -12.480863349760329 -2.0928691764785077 1.4108327078879381 -0.44736585720664496 0.02212954933572564 -8.106835412110584 -0.0317145077619254 -0.029974148940799434 44.51854095322572 -0.012446139021662377 0.010089603081077023 44.554761443024624 12.459341068888756 0.011053879358313685 0.03417235341178772 -0.04736781642265387 0.04376640594761042 0.009838123142425607 -0.042560362426838014 0.02436741715249364 -0.024542422119829856 11.136749517016158 0.04143895877062333 0.007176679917320411 -0.030032419116660054 0.0447052701706359 0.013255277903153223 0.01887344087967585 -0.03761152111607722 0.045733705255069104 4.777719490954215 -0.027961827647615806 0.03381926646663755 -0.04138692961853671 -0.034399237558526245 0.031421836751288276 -0.012667735895687555 -0.01769170145543238 -0.009671033497671835 -5.621146688721415 -0.0037425416170922808 -0.0295900861861315 -6.72100579980653 -0.027841541824776283 0.0033055886449213086 -6.7384297207354535 0.02635618880723784 0.048795879540795714 0.03977726649982747 -0.018254913631881156 0.04160998691441961 8.027419845662614 3.479367218337009 -19.229505416236176 -0.022463673400532243 10.400209849695926 0.010489609719588261 -5.609058381842117 -15.68716364649578 3.2159644790267654 -0.005333988200343828 -0.03143708061099433 0.034209067314253314 -0.013802100180450543 4.699946438321164 0.019903170835871575 12.473214444018096 -8.198928915870438 6.876481459507468 -0.004677285340544376 46.34451351919047 0.03665706104166453 -4.327950406005312 -14.73520333284847 -3.864807014483153 0.02642912743543405 0.03616284064948728 0.014592021363717124 -0.011530364331249833 -10.747946658759362 0.011624171647735649 
